<mxfile host="Electron" modified="2024-03-24T19:53:09.771Z" agent="Mozilla/5.0 (Windows NT 10.0; Win64; x64) AppleWebKit/537.36 (KHTML, like Gecko) draw.io/23.1.5 Chrome/120.0.6099.109 Electron/28.1.0 Safari/537.36" etag="PHZznpmVQvhd_mLh5bgl" version="23.1.5" type="device">
  <diagram name="Страница — 1" id="trLNLtZM0I9YAx9lOJCE">
    <mxGraphModel dx="2263" dy="968" grid="1" gridSize="10" guides="1" tooltips="1" connect="1" arrows="1" fold="1" page="1" pageScale="1" pageWidth="827" pageHeight="1169" math="0" shadow="0">
      <root>
        <mxCell id="0" />
        <mxCell id="1" parent="0" />
        <mxCell id="gv5lze--wlOEz9VzUW8e-1" value="" style="shape=umlLifeline;perimeter=lifelinePerimeter;whiteSpace=wrap;html=1;container=1;dropTarget=0;collapsible=0;recursiveResize=0;outlineConnect=0;portConstraint=eastwest;newEdgeStyle={&quot;curved&quot;:0,&quot;rounded&quot;:0};participant=umlActor;" parent="1" vertex="1">
          <mxGeometry x="110" width="20" height="1330" as="geometry" />
        </mxCell>
        <mxCell id="gv5lze--wlOEz9VzUW8e-3" value="" style="html=1;points=[[0,0,0,0,5],[0,1,0,0,-5],[1,0,0,0,5],[1,1,0,0,-5]];perimeter=orthogonalPerimeter;outlineConnect=0;targetShapes=umlLifeline;portConstraint=eastwest;newEdgeStyle={&quot;curved&quot;:0,&quot;rounded&quot;:0};" parent="gv5lze--wlOEz9VzUW8e-1" vertex="1">
          <mxGeometry x="5" y="50" width="10" height="1270" as="geometry" />
        </mxCell>
        <mxCell id="gv5lze--wlOEz9VzUW8e-2" value="Менеджер проекта" style="text;html=1;align=center;verticalAlign=middle;whiteSpace=wrap;rounded=0;" parent="1" vertex="1">
          <mxGeometry x="50" y="40" width="60" height="30" as="geometry" />
        </mxCell>
        <mxCell id="gv5lze--wlOEz9VzUW8e-4" value=":GUI" style="shape=umlLifeline;perimeter=lifelinePerimeter;whiteSpace=wrap;html=1;container=1;dropTarget=0;collapsible=0;recursiveResize=0;outlineConnect=0;portConstraint=eastwest;newEdgeStyle={&quot;curved&quot;:0,&quot;rounded&quot;:0};" parent="1" vertex="1">
          <mxGeometry x="230" width="100" height="1330" as="geometry" />
        </mxCell>
        <mxCell id="gv5lze--wlOEz9VzUW8e-10" value="" style="html=1;points=[[0,0,0,0,5],[0,1,0,0,-5],[1,0,0,0,5],[1,1,0,0,-5]];perimeter=orthogonalPerimeter;outlineConnect=0;targetShapes=umlLifeline;portConstraint=eastwest;newEdgeStyle={&quot;curved&quot;:0,&quot;rounded&quot;:0};" parent="gv5lze--wlOEz9VzUW8e-4" vertex="1">
          <mxGeometry x="45" y="60" width="10" height="80" as="geometry" />
        </mxCell>
        <mxCell id="gv5lze--wlOEz9VzUW8e-78" value="" style="html=1;points=[[0,0,0,0,5],[0,1,0,0,-5],[1,0,0,0,5],[1,1,0,0,-5]];perimeter=orthogonalPerimeter;outlineConnect=0;targetShapes=umlLifeline;portConstraint=eastwest;newEdgeStyle={&quot;curved&quot;:0,&quot;rounded&quot;:0};" parent="gv5lze--wlOEz9VzUW8e-4" vertex="1">
          <mxGeometry x="45" y="520" width="10" height="190" as="geometry" />
        </mxCell>
        <mxCell id="gv5lze--wlOEz9VzUW8e-79" value="Ввести часть имени" style="html=1;verticalAlign=bottom;endArrow=block;curved=0;rounded=0;entryX=0;entryY=0;entryDx=0;entryDy=5;entryPerimeter=0;" parent="gv5lze--wlOEz9VzUW8e-4" target="gv5lze--wlOEz9VzUW8e-78" edge="1">
          <mxGeometry y="5" relative="1" as="geometry">
            <mxPoint x="-105" y="525" as="sourcePoint" />
            <mxPoint as="offset" />
          </mxGeometry>
        </mxCell>
        <mxCell id="gv5lze--wlOEz9VzUW8e-111" value="" style="html=1;points=[[0,0,0,0,5],[0,1,0,0,-5],[1,0,0,0,5],[1,1,0,0,-5]];perimeter=orthogonalPerimeter;outlineConnect=0;targetShapes=umlLifeline;portConstraint=eastwest;newEdgeStyle={&quot;curved&quot;:0,&quot;rounded&quot;:0};" parent="gv5lze--wlOEz9VzUW8e-4" vertex="1">
          <mxGeometry x="45" y="730" width="10" height="40" as="geometry" />
        </mxCell>
        <mxCell id="gv5lze--wlOEz9VzUW8e-134" value="" style="html=1;points=[[0,0,0,0,5],[0,1,0,0,-5],[1,0,0,0,5],[1,1,0,0,-5]];perimeter=orthogonalPerimeter;outlineConnect=0;targetShapes=umlLifeline;portConstraint=eastwest;newEdgeStyle={&quot;curved&quot;:0,&quot;rounded&quot;:0};" parent="gv5lze--wlOEz9VzUW8e-4" vertex="1">
          <mxGeometry x="45" y="806" width="10" height="50" as="geometry" />
        </mxCell>
        <mxCell id="gv5lze--wlOEz9VzUW8e-142" value="" style="html=1;points=[[0,0,0,0,5],[0,1,0,0,-5],[1,0,0,0,5],[1,1,0,0,-5]];perimeter=orthogonalPerimeter;outlineConnect=0;targetShapes=umlLifeline;portConstraint=eastwest;newEdgeStyle={&quot;curved&quot;:0,&quot;rounded&quot;:0};" parent="gv5lze--wlOEz9VzUW8e-4" vertex="1">
          <mxGeometry x="45" y="1051" width="10" height="259" as="geometry" />
        </mxCell>
        <mxCell id="1q9RvxqPOxcDUt8TUrFw-4" value="" style="html=1;points=[[0,0,0,0,5],[0,1,0,0,-5],[1,0,0,0,5],[1,1,0,0,-5]];perimeter=orthogonalPerimeter;outlineConnect=0;targetShapes=umlLifeline;portConstraint=eastwest;newEdgeStyle={&quot;curved&quot;:0,&quot;rounded&quot;:0};" parent="gv5lze--wlOEz9VzUW8e-4" vertex="1">
          <mxGeometry x="45" y="880" width="10" height="50" as="geometry" />
        </mxCell>
        <mxCell id="1q9RvxqPOxcDUt8TUrFw-30" value="" style="html=1;points=[[0,0,0,0,5],[0,1,0,0,-5],[1,0,0,0,5],[1,1,0,0,-5]];perimeter=orthogonalPerimeter;outlineConnect=0;targetShapes=umlLifeline;portConstraint=eastwest;newEdgeStyle={&quot;curved&quot;:0,&quot;rounded&quot;:0};" parent="gv5lze--wlOEz9VzUW8e-4" vertex="1">
          <mxGeometry x="45" y="960" width="10" height="50" as="geometry" />
        </mxCell>
        <mxCell id="1q9RvxqPOxcDUt8TUrFw-31" value="[заполнить потраченное время]" style="text;html=1;align=center;verticalAlign=middle;whiteSpace=wrap;rounded=0;" parent="gv5lze--wlOEz9VzUW8e-4" vertex="1">
          <mxGeometry x="-215" y="950" width="70" height="30" as="geometry" />
        </mxCell>
        <mxCell id="1q9RvxqPOxcDUt8TUrFw-32" value="Запрос ввода" style="html=1;verticalAlign=bottom;endArrow=block;curved=0;rounded=0;entryX=0;entryY=0;entryDx=0;entryDy=5;entryPerimeter=0;" parent="gv5lze--wlOEz9VzUW8e-4" target="1q9RvxqPOxcDUt8TUrFw-30" edge="1">
          <mxGeometry y="5" relative="1" as="geometry">
            <mxPoint x="-105" y="965" as="sourcePoint" />
            <mxPoint as="offset" />
          </mxGeometry>
        </mxCell>
        <mxCell id="1q9RvxqPOxcDUt8TUrFw-33" value="Результат" style="html=1;verticalAlign=bottom;endArrow=open;dashed=1;endSize=8;curved=0;rounded=0;exitX=0;exitY=1;exitDx=0;exitDy=-5;exitPerimeter=0;" parent="gv5lze--wlOEz9VzUW8e-4" source="1q9RvxqPOxcDUt8TUrFw-30" edge="1">
          <mxGeometry x="0.1333" y="-5" relative="1" as="geometry">
            <mxPoint x="-105" y="1005" as="targetPoint" />
            <mxPoint as="offset" />
          </mxGeometry>
        </mxCell>
        <mxCell id="gv5lze--wlOEz9VzUW8e-15" value="Выбрать &quot;Создать задачи&quot;" style="html=1;verticalAlign=bottom;endArrow=block;curved=0;rounded=0;entryX=0;entryY=0;entryDx=0;entryDy=5;entryPerimeter=0;" parent="1" source="gv5lze--wlOEz9VzUW8e-3" target="gv5lze--wlOEz9VzUW8e-10" edge="1">
          <mxGeometry y="5" relative="1" as="geometry">
            <mxPoint x="130" y="155" as="sourcePoint" />
            <mxPoint as="offset" />
          </mxGeometry>
        </mxCell>
        <mxCell id="gv5lze--wlOEz9VzUW8e-16" value="Форма создания задачи" style="html=1;verticalAlign=bottom;endArrow=open;dashed=1;endSize=8;curved=0;rounded=0;exitX=0;exitY=1;exitDx=0;exitDy=-5;exitPerimeter=0;" parent="1" source="gv5lze--wlOEz9VzUW8e-10" target="gv5lze--wlOEz9VzUW8e-3" edge="1">
          <mxGeometry relative="1" as="geometry">
            <mxPoint x="130" y="225" as="targetPoint" />
          </mxGeometry>
        </mxCell>
        <mxCell id="gv5lze--wlOEz9VzUW8e-20" value="&lt;b&gt;loop&lt;/b&gt;" style="shape=umlFrame;whiteSpace=wrap;html=1;pointerEvents=0;width=40;height=20;" parent="1" vertex="1">
          <mxGeometry y="150" width="1280" height="880" as="geometry" />
        </mxCell>
        <mxCell id="gv5lze--wlOEz9VzUW8e-21" value="[пока не нажата кнопка сохранить]" style="text;html=1;align=center;verticalAlign=middle;whiteSpace=wrap;rounded=0;" parent="1" vertex="1">
          <mxGeometry x="130" y="150" width="110" height="30" as="geometry" />
        </mxCell>
        <mxCell id="gv5lze--wlOEz9VzUW8e-22" value="&lt;b&gt;alt&lt;/b&gt;" style="shape=umlFrame;whiteSpace=wrap;html=1;pointerEvents=0;width=40;height=20;" parent="1" vertex="1">
          <mxGeometry x="10" y="180" width="1260" height="840" as="geometry" />
        </mxCell>
        <mxCell id="gv5lze--wlOEz9VzUW8e-23" value="[заполнинено название]" style="text;html=1;align=center;verticalAlign=middle;whiteSpace=wrap;rounded=0;" parent="1" vertex="1">
          <mxGeometry x="10" y="210" width="80" height="30" as="geometry" />
        </mxCell>
        <mxCell id="gv5lze--wlOEz9VzUW8e-24" value=":Валидатор GUI" style="shape=umlLifeline;perimeter=lifelinePerimeter;whiteSpace=wrap;html=1;container=1;dropTarget=0;collapsible=0;recursiveResize=0;outlineConnect=0;portConstraint=eastwest;newEdgeStyle={&quot;curved&quot;:0,&quot;rounded&quot;:0};" parent="1" vertex="1">
          <mxGeometry x="390" width="100" height="1330" as="geometry" />
        </mxCell>
        <mxCell id="gv5lze--wlOEz9VzUW8e-26" value="" style="html=1;points=[[0,0,0,0,5],[0,1,0,0,-5],[1,0,0,0,5],[1,1,0,0,-5]];perimeter=orthogonalPerimeter;outlineConnect=0;targetShapes=umlLifeline;portConstraint=eastwest;newEdgeStyle={&quot;curved&quot;:0,&quot;rounded&quot;:0};" parent="gv5lze--wlOEz9VzUW8e-24" vertex="1">
          <mxGeometry x="45" y="210" width="10" height="30" as="geometry" />
        </mxCell>
        <mxCell id="gv5lze--wlOEz9VzUW8e-83" value="" style="html=1;points=[[0,0,0,0,5],[0,1,0,0,-5],[1,0,0,0,5],[1,1,0,0,-5]];perimeter=orthogonalPerimeter;outlineConnect=0;targetShapes=umlLifeline;portConstraint=eastwest;newEdgeStyle={&quot;curved&quot;:0,&quot;rounded&quot;:0};" parent="gv5lze--wlOEz9VzUW8e-24" vertex="1">
          <mxGeometry x="45" y="530" width="10" height="30" as="geometry" />
        </mxCell>
        <mxCell id="gv5lze--wlOEz9VzUW8e-137" value="" style="html=1;points=[[0,0,0,0,5],[0,1,0,0,-5],[1,0,0,0,5],[1,1,0,0,-5]];perimeter=orthogonalPerimeter;outlineConnect=0;targetShapes=umlLifeline;portConstraint=eastwest;newEdgeStyle={&quot;curved&quot;:0,&quot;rounded&quot;:0};" parent="gv5lze--wlOEz9VzUW8e-24" vertex="1">
          <mxGeometry x="45" y="811" width="10" height="40" as="geometry" />
        </mxCell>
        <mxCell id="1q9RvxqPOxcDUt8TUrFw-10" value="" style="html=1;points=[[0,0,0,0,5],[0,1,0,0,-5],[1,0,0,0,5],[1,1,0,0,-5]];perimeter=orthogonalPerimeter;outlineConnect=0;targetShapes=umlLifeline;portConstraint=eastwest;newEdgeStyle={&quot;curved&quot;:0,&quot;rounded&quot;:0};" parent="gv5lze--wlOEz9VzUW8e-24" vertex="1">
          <mxGeometry x="45" y="883" width="10" height="40" as="geometry" />
        </mxCell>
        <mxCell id="1q9RvxqPOxcDUt8TUrFw-34" value="" style="html=1;points=[[0,0,0,0,5],[0,1,0,0,-5],[1,0,0,0,5],[1,1,0,0,-5]];perimeter=orthogonalPerimeter;outlineConnect=0;targetShapes=umlLifeline;portConstraint=eastwest;newEdgeStyle={&quot;curved&quot;:0,&quot;rounded&quot;:0};" parent="gv5lze--wlOEz9VzUW8e-24" vertex="1">
          <mxGeometry x="45" y="960" width="10" height="40" as="geometry" />
        </mxCell>
        <mxCell id="gv5lze--wlOEz9VzUW8e-27" value="Проверить поле" style="html=1;verticalAlign=bottom;endArrow=block;curved=0;rounded=0;entryX=0;entryY=0;entryDx=0;entryDy=5;entryPerimeter=0;" parent="1" source="gv5lze--wlOEz9VzUW8e-65" target="gv5lze--wlOEz9VzUW8e-26" edge="1">
          <mxGeometry x="-0.4" y="5" relative="1" as="geometry">
            <mxPoint x="285" y="225" as="sourcePoint" />
            <mxPoint as="offset" />
          </mxGeometry>
        </mxCell>
        <mxCell id="gv5lze--wlOEz9VzUW8e-28" value="Результат" style="html=1;verticalAlign=bottom;endArrow=open;dashed=1;endSize=8;curved=0;rounded=0;exitX=0;exitY=1;exitDx=0;exitDy=-5;exitPerimeter=0;" parent="1" source="gv5lze--wlOEz9VzUW8e-26" target="gv5lze--wlOEz9VzUW8e-65" edge="1">
          <mxGeometry x="0.5333" relative="1" as="geometry">
            <mxPoint x="285" y="295" as="targetPoint" />
            <mxPoint as="offset" />
          </mxGeometry>
        </mxCell>
        <mxCell id="gv5lze--wlOEz9VzUW8e-29" value=":Обработчик команд" style="shape=umlLifeline;perimeter=lifelinePerimeter;whiteSpace=wrap;html=1;container=1;dropTarget=0;collapsible=0;recursiveResize=0;outlineConnect=0;portConstraint=eastwest;newEdgeStyle={&quot;curved&quot;:0,&quot;rounded&quot;:0};" parent="1" vertex="1">
          <mxGeometry x="550" width="100" height="1330" as="geometry" />
        </mxCell>
        <mxCell id="gv5lze--wlOEz9VzUW8e-43" value="" style="html=1;points=[[0,0,0,0,5],[0,1,0,0,-5],[1,0,0,0,5],[1,1,0,0,-5]];perimeter=orthogonalPerimeter;outlineConnect=0;targetShapes=umlLifeline;portConstraint=eastwest;newEdgeStyle={&quot;curved&quot;:0,&quot;rounded&quot;:0};" parent="gv5lze--wlOEz9VzUW8e-29" vertex="1">
          <mxGeometry x="45" y="250" width="10" height="130" as="geometry" />
        </mxCell>
        <mxCell id="gv5lze--wlOEz9VzUW8e-95" value="" style="html=1;points=[[0,0,0,0,5],[0,1,0,0,-5],[1,0,0,0,5],[1,1,0,0,-5]];perimeter=orthogonalPerimeter;outlineConnect=0;targetShapes=umlLifeline;portConstraint=eastwest;newEdgeStyle={&quot;curved&quot;:0,&quot;rounded&quot;:0};" parent="gv5lze--wlOEz9VzUW8e-29" vertex="1">
          <mxGeometry x="45" y="570" width="10" height="130" as="geometry" />
        </mxCell>
        <mxCell id="gv5lze--wlOEz9VzUW8e-145" value="" style="html=1;points=[[0,0,0,0,5],[0,1,0,0,-5],[1,0,0,0,5],[1,1,0,0,-5]];perimeter=orthogonalPerimeter;outlineConnect=0;targetShapes=umlLifeline;portConstraint=eastwest;newEdgeStyle={&quot;curved&quot;:0,&quot;rounded&quot;:0};" parent="gv5lze--wlOEz9VzUW8e-29" vertex="1">
          <mxGeometry x="45" y="1061" width="10" height="239" as="geometry" />
        </mxCell>
        <mxCell id="gv5lze--wlOEz9VzUW8e-31" value=":&lt;i&gt;Обработчик команды&lt;/i&gt;" style="shape=umlLifeline;perimeter=lifelinePerimeter;whiteSpace=wrap;html=1;container=1;dropTarget=0;collapsible=0;recursiveResize=0;outlineConnect=0;portConstraint=eastwest;newEdgeStyle={&quot;curved&quot;:0,&quot;rounded&quot;:0};" parent="1" vertex="1">
          <mxGeometry x="710" width="100" height="1330" as="geometry" />
        </mxCell>
        <mxCell id="gv5lze--wlOEz9VzUW8e-47" value="" style="html=1;points=[[0,0,0,0,5],[0,1,0,0,-5],[1,0,0,0,5],[1,1,0,0,-5]];perimeter=orthogonalPerimeter;outlineConnect=0;targetShapes=umlLifeline;portConstraint=eastwest;newEdgeStyle={&quot;curved&quot;:0,&quot;rounded&quot;:0};" parent="gv5lze--wlOEz9VzUW8e-31" vertex="1">
          <mxGeometry x="45" y="260" width="10" height="110" as="geometry" />
        </mxCell>
        <mxCell id="gv5lze--wlOEz9VzUW8e-98" value="" style="html=1;points=[[0,0,0,0,5],[0,1,0,0,-5],[1,0,0,0,5],[1,1,0,0,-5]];perimeter=orthogonalPerimeter;outlineConnect=0;targetShapes=umlLifeline;portConstraint=eastwest;newEdgeStyle={&quot;curved&quot;:0,&quot;rounded&quot;:0};" parent="gv5lze--wlOEz9VzUW8e-31" vertex="1">
          <mxGeometry x="45" y="585" width="10" height="110" as="geometry" />
        </mxCell>
        <mxCell id="gv5lze--wlOEz9VzUW8e-151" value="" style="html=1;points=[[0,0,0,0,5],[0,1,0,0,-5],[1,0,0,0,5],[1,1,0,0,-5]];perimeter=orthogonalPerimeter;outlineConnect=0;targetShapes=umlLifeline;portConstraint=eastwest;newEdgeStyle={&quot;curved&quot;:0,&quot;rounded&quot;:0};" parent="gv5lze--wlOEz9VzUW8e-31" vertex="1">
          <mxGeometry x="45" y="1061" width="10" height="239" as="geometry" />
        </mxCell>
        <mxCell id="gv5lze--wlOEz9VzUW8e-34" value=":Коннектор с БД" style="shape=umlLifeline;perimeter=lifelinePerimeter;whiteSpace=wrap;html=1;container=1;dropTarget=0;collapsible=0;recursiveResize=0;outlineConnect=0;portConstraint=eastwest;newEdgeStyle={&quot;curved&quot;:0,&quot;rounded&quot;:0};" parent="1" vertex="1">
          <mxGeometry x="1030" width="100" height="1330" as="geometry" />
        </mxCell>
        <mxCell id="gv5lze--wlOEz9VzUW8e-59" value="" style="html=1;points=[[0,0,0,0,5],[0,1,0,0,-5],[1,0,0,0,5],[1,1,0,0,-5]];perimeter=orthogonalPerimeter;outlineConnect=0;targetShapes=umlLifeline;portConstraint=eastwest;newEdgeStyle={&quot;curved&quot;:0,&quot;rounded&quot;:0};" parent="gv5lze--wlOEz9VzUW8e-34" vertex="1">
          <mxGeometry x="45" y="320" width="10" height="50" as="geometry" />
        </mxCell>
        <mxCell id="gv5lze--wlOEz9VzUW8e-157" value="" style="html=1;points=[[0,0,0,0,5],[0,1,0,0,-5],[1,0,0,0,5],[1,1,0,0,-5]];perimeter=orthogonalPerimeter;outlineConnect=0;targetShapes=umlLifeline;portConstraint=eastwest;newEdgeStyle={&quot;curved&quot;:0,&quot;rounded&quot;:0};" parent="gv5lze--wlOEz9VzUW8e-34" vertex="1">
          <mxGeometry x="45" y="1062" width="10" height="40" as="geometry" />
        </mxCell>
        <mxCell id="gv5lze--wlOEz9VzUW8e-164" value="" style="html=1;points=[[0,0,0,0,5],[0,1,0,0,-5],[1,0,0,0,5],[1,1,0,0,-5]];perimeter=orthogonalPerimeter;outlineConnect=0;targetShapes=umlLifeline;portConstraint=eastwest;newEdgeStyle={&quot;curved&quot;:0,&quot;rounded&quot;:0};" parent="gv5lze--wlOEz9VzUW8e-34" vertex="1">
          <mxGeometry x="45" y="1131" width="10" height="40" as="geometry" />
        </mxCell>
        <mxCell id="gv5lze--wlOEz9VzUW8e-171" value="" style="html=1;points=[[0,0,0,0,5],[0,1,0,0,-5],[1,0,0,0,5],[1,1,0,0,-5]];perimeter=orthogonalPerimeter;outlineConnect=0;targetShapes=umlLifeline;portConstraint=eastwest;newEdgeStyle={&quot;curved&quot;:0,&quot;rounded&quot;:0};" parent="gv5lze--wlOEz9VzUW8e-34" vertex="1">
          <mxGeometry x="45" y="1191" width="10" height="49" as="geometry" />
        </mxCell>
        <mxCell id="gv5lze--wlOEz9VzUW8e-38" value="" style="shape=umlLifeline;perimeter=lifelinePerimeter;whiteSpace=wrap;html=1;container=1;dropTarget=0;collapsible=0;recursiveResize=0;outlineConnect=0;portConstraint=eastwest;newEdgeStyle={&quot;curved&quot;:0,&quot;rounded&quot;:0};participant=umlActor;" parent="1" vertex="1">
          <mxGeometry x="1230" width="20" height="1330" as="geometry" />
        </mxCell>
        <mxCell id="gv5lze--wlOEz9VzUW8e-62" value="" style="html=1;points=[[0,0,0,0,5],[0,1,0,0,-5],[1,0,0,0,5],[1,1,0,0,-5]];perimeter=orthogonalPerimeter;outlineConnect=0;targetShapes=umlLifeline;portConstraint=eastwest;newEdgeStyle={&quot;curved&quot;:0,&quot;rounded&quot;:0};" parent="gv5lze--wlOEz9VzUW8e-38" vertex="1">
          <mxGeometry x="5" y="330" width="10" height="40" as="geometry" />
        </mxCell>
        <mxCell id="gv5lze--wlOEz9VzUW8e-158" value="" style="html=1;points=[[0,0,0,0,5],[0,1,0,0,-5],[1,0,0,0,5],[1,1,0,0,-5]];perimeter=orthogonalPerimeter;outlineConnect=0;targetShapes=umlLifeline;portConstraint=eastwest;newEdgeStyle={&quot;curved&quot;:0,&quot;rounded&quot;:0};" parent="gv5lze--wlOEz9VzUW8e-38" vertex="1">
          <mxGeometry x="5" y="1062" width="10" height="40" as="geometry" />
        </mxCell>
        <mxCell id="gv5lze--wlOEz9VzUW8e-165" value="" style="html=1;points=[[0,0,0,0,5],[0,1,0,0,-5],[1,0,0,0,5],[1,1,0,0,-5]];perimeter=orthogonalPerimeter;outlineConnect=0;targetShapes=umlLifeline;portConstraint=eastwest;newEdgeStyle={&quot;curved&quot;:0,&quot;rounded&quot;:0};" parent="gv5lze--wlOEz9VzUW8e-38" vertex="1">
          <mxGeometry x="6" y="1131" width="10" height="40" as="geometry" />
        </mxCell>
        <mxCell id="gv5lze--wlOEz9VzUW8e-174" value="" style="html=1;points=[[0,0,0,0,5],[0,1,0,0,-5],[1,0,0,0,5],[1,1,0,0,-5]];perimeter=orthogonalPerimeter;outlineConnect=0;targetShapes=umlLifeline;portConstraint=eastwest;newEdgeStyle={&quot;curved&quot;:0,&quot;rounded&quot;:0};" parent="gv5lze--wlOEz9VzUW8e-38" vertex="1">
          <mxGeometry x="5" y="1191" width="10" height="40" as="geometry" />
        </mxCell>
        <mxCell id="gv5lze--wlOEz9VzUW8e-39" value="БД" style="text;html=1;align=center;verticalAlign=middle;whiteSpace=wrap;rounded=0;" parent="1" vertex="1">
          <mxGeometry x="1210" y="40" width="30" height="30" as="geometry" />
        </mxCell>
        <mxCell id="gv5lze--wlOEz9VzUW8e-40" value=":Коннектор с системой оповещения" style="shape=umlLifeline;perimeter=lifelinePerimeter;whiteSpace=wrap;html=1;container=1;dropTarget=0;collapsible=0;recursiveResize=0;outlineConnect=0;portConstraint=eastwest;newEdgeStyle={&quot;curved&quot;:0,&quot;rounded&quot;:0};size=50;" parent="1" vertex="1">
          <mxGeometry x="1351" width="100" height="1330" as="geometry" />
        </mxCell>
        <mxCell id="gv5lze--wlOEz9VzUW8e-180" value="" style="html=1;points=[[0,0,0,0,5],[0,1,0,0,-5],[1,0,0,0,5],[1,1,0,0,-5]];perimeter=orthogonalPerimeter;outlineConnect=0;targetShapes=umlLifeline;portConstraint=eastwest;newEdgeStyle={&quot;curved&quot;:0,&quot;rounded&quot;:0};" parent="gv5lze--wlOEz9VzUW8e-40" vertex="1">
          <mxGeometry x="45" y="1260" width="10" height="40" as="geometry" />
        </mxCell>
        <mxCell id="gv5lze--wlOEz9VzUW8e-41" value="" style="shape=umlLifeline;perimeter=lifelinePerimeter;whiteSpace=wrap;html=1;container=1;dropTarget=0;collapsible=0;recursiveResize=0;outlineConnect=0;portConstraint=eastwest;newEdgeStyle={&quot;curved&quot;:0,&quot;rounded&quot;:0};participant=umlActor;" parent="1" vertex="1">
          <mxGeometry x="1550" width="20" height="1330" as="geometry" />
        </mxCell>
        <mxCell id="gv5lze--wlOEz9VzUW8e-42" value="Система оповещений" style="text;html=1;align=center;verticalAlign=middle;whiteSpace=wrap;rounded=0;" parent="1" vertex="1">
          <mxGeometry x="1490" y="40" width="70" height="30" as="geometry" />
        </mxCell>
        <mxCell id="gv5lze--wlOEz9VzUW8e-44" value="GET /task" style="html=1;verticalAlign=bottom;endArrow=block;curved=0;rounded=0;entryX=0;entryY=0;entryDx=0;entryDy=5;entryPerimeter=0;" parent="1" source="gv5lze--wlOEz9VzUW8e-65" target="gv5lze--wlOEz9VzUW8e-43" edge="1">
          <mxGeometry x="-0.7097" relative="1" as="geometry">
            <mxPoint x="285" y="225" as="sourcePoint" />
            <mxPoint as="offset" />
          </mxGeometry>
        </mxCell>
        <mxCell id="gv5lze--wlOEz9VzUW8e-45" value="Список задач" style="html=1;verticalAlign=bottom;endArrow=open;dashed=1;endSize=8;curved=0;rounded=0;exitX=0;exitY=1;exitDx=0;exitDy=-5;exitPerimeter=0;" parent="1" source="gv5lze--wlOEz9VzUW8e-43" target="gv5lze--wlOEz9VzUW8e-65" edge="1">
          <mxGeometry x="0.6452" relative="1" as="geometry">
            <mxPoint x="285" y="295" as="targetPoint" />
            <mxPoint as="offset" />
          </mxGeometry>
        </mxCell>
        <mxCell id="gv5lze--wlOEz9VzUW8e-48" value="Передать запрос" style="html=1;verticalAlign=bottom;endArrow=block;curved=0;rounded=0;entryX=0;entryY=0;entryDx=0;entryDy=5;entryPerimeter=0;" parent="1" source="gv5lze--wlOEz9VzUW8e-43" target="gv5lze--wlOEz9VzUW8e-47" edge="1">
          <mxGeometry x="-0.1333" y="5" relative="1" as="geometry">
            <mxPoint x="605" y="225" as="sourcePoint" />
            <mxPoint as="offset" />
          </mxGeometry>
        </mxCell>
        <mxCell id="gv5lze--wlOEz9VzUW8e-49" value="Наличие задачи" style="html=1;verticalAlign=bottom;endArrow=open;dashed=1;endSize=8;curved=0;rounded=0;exitX=0;exitY=1;exitDx=0;exitDy=-5;exitPerimeter=0;" parent="1" source="gv5lze--wlOEz9VzUW8e-47" target="gv5lze--wlOEz9VzUW8e-43" edge="1">
          <mxGeometry x="0.2667" y="-5" relative="1" as="geometry">
            <mxPoint x="605" y="295" as="targetPoint" />
            <mxPoint as="offset" />
          </mxGeometry>
        </mxCell>
        <mxCell id="gv5lze--wlOEz9VzUW8e-54" value=":Валидатор команды" style="shape=umlLifeline;perimeter=lifelinePerimeter;whiteSpace=wrap;html=1;container=1;dropTarget=0;collapsible=0;recursiveResize=0;outlineConnect=0;portConstraint=eastwest;newEdgeStyle={&quot;curved&quot;:0,&quot;rounded&quot;:0};" parent="1" vertex="1">
          <mxGeometry x="870" width="100" height="1330" as="geometry" />
        </mxCell>
        <mxCell id="gv5lze--wlOEz9VzUW8e-56" value="" style="html=1;points=[[0,0,0,0,5],[0,1,0,0,-5],[1,0,0,0,5],[1,1,0,0,-5]];perimeter=orthogonalPerimeter;outlineConnect=0;targetShapes=umlLifeline;portConstraint=eastwest;newEdgeStyle={&quot;curved&quot;:0,&quot;rounded&quot;:0};" parent="gv5lze--wlOEz9VzUW8e-54" vertex="1">
          <mxGeometry x="45" y="265" width="10" height="35" as="geometry" />
        </mxCell>
        <mxCell id="gv5lze--wlOEz9VzUW8e-154" value="" style="html=1;points=[[0,0,0,0,5],[0,1,0,0,-5],[1,0,0,0,5],[1,1,0,0,-5]];perimeter=orthogonalPerimeter;outlineConnect=0;targetShapes=umlLifeline;portConstraint=eastwest;newEdgeStyle={&quot;curved&quot;:0,&quot;rounded&quot;:0};" parent="gv5lze--wlOEz9VzUW8e-54" vertex="1">
          <mxGeometry x="45" y="1061" width="10" height="110" as="geometry" />
        </mxCell>
        <mxCell id="gv5lze--wlOEz9VzUW8e-57" value="Проверить параметры" style="html=1;verticalAlign=bottom;endArrow=block;curved=0;rounded=0;entryX=0;entryY=0;entryDx=0;entryDy=5;entryPerimeter=0;" parent="1" source="gv5lze--wlOEz9VzUW8e-47" target="gv5lze--wlOEz9VzUW8e-56" edge="1">
          <mxGeometry x="-0.1333" y="5" relative="1" as="geometry">
            <mxPoint x="765" y="225" as="sourcePoint" />
            <mxPoint as="offset" />
          </mxGeometry>
        </mxCell>
        <mxCell id="gv5lze--wlOEz9VzUW8e-58" value="Результат" style="html=1;verticalAlign=bottom;endArrow=open;dashed=1;endSize=8;curved=0;rounded=0;exitX=0;exitY=1;exitDx=0;exitDy=-5;exitPerimeter=0;" parent="1" source="gv5lze--wlOEz9VzUW8e-56" target="gv5lze--wlOEz9VzUW8e-47" edge="1">
          <mxGeometry x="0.5333" relative="1" as="geometry">
            <mxPoint x="765" y="295" as="targetPoint" />
            <mxPoint as="offset" />
          </mxGeometry>
        </mxCell>
        <mxCell id="gv5lze--wlOEz9VzUW8e-60" value="Проверить наличие задачи" style="html=1;verticalAlign=bottom;endArrow=block;curved=0;rounded=0;entryX=0;entryY=0;entryDx=0;entryDy=5;entryPerimeter=0;" parent="1" source="gv5lze--wlOEz9VzUW8e-47" target="gv5lze--wlOEz9VzUW8e-59" edge="1">
          <mxGeometry x="-0.5161" y="5" relative="1" as="geometry">
            <mxPoint x="925" y="315" as="sourcePoint" />
            <mxPoint as="offset" />
          </mxGeometry>
        </mxCell>
        <mxCell id="gv5lze--wlOEz9VzUW8e-61" value="Наличие задачи" style="html=1;verticalAlign=bottom;endArrow=open;dashed=1;endSize=8;curved=0;rounded=0;exitX=0;exitY=1;exitDx=0;exitDy=-5;exitPerimeter=0;" parent="1" source="gv5lze--wlOEz9VzUW8e-59" target="gv5lze--wlOEz9VzUW8e-47" edge="1">
          <mxGeometry x="0.6452" y="-5" relative="1" as="geometry">
            <mxPoint x="925" y="345" as="targetPoint" />
            <mxPoint as="offset" />
          </mxGeometry>
        </mxCell>
        <mxCell id="gv5lze--wlOEz9VzUW8e-63" value="Запрос" style="html=1;verticalAlign=bottom;endArrow=block;curved=0;rounded=0;entryX=0;entryY=0;entryDx=0;entryDy=5;entryPerimeter=0;" parent="1" source="gv5lze--wlOEz9VzUW8e-59" target="gv5lze--wlOEz9VzUW8e-62" edge="1">
          <mxGeometry x="-0.5806" y="5" relative="1" as="geometry">
            <mxPoint x="925" y="305" as="sourcePoint" />
            <mxPoint as="offset" />
          </mxGeometry>
        </mxCell>
        <mxCell id="gv5lze--wlOEz9VzUW8e-64" value="Результат" style="html=1;verticalAlign=bottom;endArrow=open;dashed=1;endSize=8;curved=0;rounded=0;exitX=0;exitY=1;exitDx=0;exitDy=-5;exitPerimeter=0;" parent="1" source="gv5lze--wlOEz9VzUW8e-62" target="gv5lze--wlOEz9VzUW8e-59" edge="1">
          <mxGeometry x="0.5806" y="-5" relative="1" as="geometry">
            <mxPoint x="925" y="345" as="targetPoint" />
            <mxPoint as="offset" />
          </mxGeometry>
        </mxCell>
        <mxCell id="gv5lze--wlOEz9VzUW8e-65" value="" style="html=1;points=[[0,0,0,0,5],[0,1,0,0,-5],[1,0,0,0,5],[1,1,0,0,-5]];perimeter=orthogonalPerimeter;outlineConnect=0;targetShapes=umlLifeline;portConstraint=eastwest;newEdgeStyle={&quot;curved&quot;:0,&quot;rounded&quot;:0};" parent="1" vertex="1">
          <mxGeometry x="275" y="200" width="10" height="250" as="geometry" />
        </mxCell>
        <mxCell id="gv5lze--wlOEz9VzUW8e-66" value="Заполнить поле" style="html=1;verticalAlign=bottom;endArrow=block;curved=0;rounded=0;entryX=0;entryY=0;entryDx=0;entryDy=5;entryPerimeter=0;" parent="1" source="gv5lze--wlOEz9VzUW8e-3" target="gv5lze--wlOEz9VzUW8e-65" edge="1">
          <mxGeometry x="-0.1333" y="5" relative="1" as="geometry">
            <mxPoint x="295" y="235" as="sourcePoint" />
            <mxPoint as="offset" />
            <mxPoint x="445" y="235" as="targetPoint" />
          </mxGeometry>
        </mxCell>
        <mxCell id="gv5lze--wlOEz9VzUW8e-67" value="" style="html=1;points=[[0,0,0,0,5],[0,1,0,0,-5],[1,0,0,0,5],[1,1,0,0,-5]];perimeter=orthogonalPerimeter;outlineConnect=0;targetShapes=umlLifeline;portConstraint=eastwest;newEdgeStyle={&quot;curved&quot;:0,&quot;rounded&quot;:0};" parent="1" vertex="1">
          <mxGeometry x="280" y="400" width="10" height="40" as="geometry" />
        </mxCell>
        <mxCell id="gv5lze--wlOEz9VzUW8e-68" value="Проверить что такой&lt;br&gt;задачи нет" style="html=1;align=left;spacingLeft=2;endArrow=block;rounded=0;edgeStyle=orthogonalEdgeStyle;curved=0;rounded=0;" parent="1" source="gv5lze--wlOEz9VzUW8e-65" target="gv5lze--wlOEz9VzUW8e-67" edge="1">
          <mxGeometry relative="1" as="geometry">
            <mxPoint x="285" y="380" as="sourcePoint" />
            <Array as="points">
              <mxPoint x="315" y="380" />
              <mxPoint x="315" y="420" />
            </Array>
          </mxGeometry>
        </mxCell>
        <mxCell id="gv5lze--wlOEz9VzUW8e-69" value="Результат" style="html=1;verticalAlign=bottom;endArrow=open;dashed=1;endSize=8;curved=0;rounded=0;exitX=0;exitY=1;exitDx=0;exitDy=-5;exitPerimeter=0;" parent="1" source="gv5lze--wlOEz9VzUW8e-65" target="gv5lze--wlOEz9VzUW8e-3" edge="1">
          <mxGeometry x="0.5333" y="-5" relative="1" as="geometry">
            <mxPoint x="295" y="375" as="targetPoint" />
            <mxPoint x="445" y="375" as="sourcePoint" />
            <mxPoint as="offset" />
          </mxGeometry>
        </mxCell>
        <mxCell id="gv5lze--wlOEz9VzUW8e-70" value="" style="endArrow=none;dashed=1;html=1;rounded=0;exitX=0;exitY=0.431;exitDx=0;exitDy=0;exitPerimeter=0;" parent="1" edge="1">
          <mxGeometry width="50" height="50" relative="1" as="geometry">
            <mxPoint x="10" y="460.48" as="sourcePoint" />
            <mxPoint x="1270" y="459" as="targetPoint" />
          </mxGeometry>
        </mxCell>
        <mxCell id="gv5lze--wlOEz9VzUW8e-71" value="[заполнить исполнителя]" style="text;html=1;align=center;verticalAlign=middle;whiteSpace=wrap;rounded=0;" parent="1" vertex="1">
          <mxGeometry x="10" y="470" width="70" height="30" as="geometry" />
        </mxCell>
        <mxCell id="gv5lze--wlOEz9VzUW8e-77" value="[пока пользователь вводит пользователей]" style="text;html=1;align=center;verticalAlign=middle;whiteSpace=wrap;rounded=0;" parent="1" vertex="1">
          <mxGeometry x="30" y="530" width="70" height="30" as="geometry" />
        </mxCell>
        <mxCell id="gv5lze--wlOEz9VzUW8e-84" value="Проверить поле" style="html=1;verticalAlign=bottom;endArrow=block;curved=0;rounded=0;entryX=0;entryY=0;entryDx=0;entryDy=5;entryPerimeter=0;" parent="1" source="gv5lze--wlOEz9VzUW8e-78" target="gv5lze--wlOEz9VzUW8e-83" edge="1">
          <mxGeometry x="-0.4" y="5" relative="1" as="geometry">
            <mxPoint x="285" y="535" as="sourcePoint" />
            <mxPoint as="offset" />
          </mxGeometry>
        </mxCell>
        <mxCell id="gv5lze--wlOEz9VzUW8e-85" value="Результат" style="html=1;verticalAlign=bottom;endArrow=open;dashed=1;endSize=8;curved=0;rounded=0;exitX=0;exitY=1;exitDx=0;exitDy=-5;exitPerimeter=0;" parent="1" source="gv5lze--wlOEz9VzUW8e-83" target="gv5lze--wlOEz9VzUW8e-78" edge="1">
          <mxGeometry x="0.5333" relative="1" as="geometry">
            <mxPoint x="285" y="555" as="targetPoint" />
            <mxPoint as="offset" />
          </mxGeometry>
        </mxCell>
        <mxCell id="gv5lze--wlOEz9VzUW8e-80" value="Всплывающий список" style="html=1;verticalAlign=bottom;endArrow=open;dashed=1;endSize=8;curved=0;rounded=0;exitX=0;exitY=1;exitDx=0;exitDy=-5;exitPerimeter=0;" parent="1" source="gv5lze--wlOEz9VzUW8e-78" target="gv5lze--wlOEz9VzUW8e-3" edge="1">
          <mxGeometry relative="1" as="geometry">
            <mxPoint x="125" y="595" as="targetPoint" />
          </mxGeometry>
        </mxCell>
        <mxCell id="gv5lze--wlOEz9VzUW8e-96" value="GET /users" style="html=1;verticalAlign=bottom;endArrow=block;curved=0;rounded=0;entryX=0;entryY=0;entryDx=0;entryDy=5;entryPerimeter=0;" parent="1" source="gv5lze--wlOEz9VzUW8e-78" target="gv5lze--wlOEz9VzUW8e-95" edge="1">
          <mxGeometry x="-0.5818" relative="1" as="geometry">
            <mxPoint x="445" y="575" as="sourcePoint" />
            <mxPoint as="offset" />
          </mxGeometry>
        </mxCell>
        <mxCell id="gv5lze--wlOEz9VzUW8e-97" value="Список пользователей" style="html=1;verticalAlign=bottom;endArrow=open;dashed=1;endSize=8;curved=0;rounded=0;exitX=0;exitY=1;exitDx=0;exitDy=-5;exitPerimeter=0;" parent="1" source="gv5lze--wlOEz9VzUW8e-95" target="gv5lze--wlOEz9VzUW8e-78" edge="1">
          <mxGeometry x="0.5806" y="-5" relative="1" as="geometry">
            <mxPoint x="445" y="595" as="targetPoint" />
            <mxPoint as="offset" />
          </mxGeometry>
        </mxCell>
        <mxCell id="gv5lze--wlOEz9VzUW8e-99" value="" style="html=1;points=[[0,0,0,0,5],[0,1,0,0,-5],[1,0,0,0,5],[1,1,0,0,-5]];perimeter=orthogonalPerimeter;outlineConnect=0;targetShapes=umlLifeline;portConstraint=eastwest;newEdgeStyle={&quot;curved&quot;:0,&quot;rounded&quot;:0};" parent="1" vertex="1">
          <mxGeometry x="1075" y="645" width="10" height="50" as="geometry" />
        </mxCell>
        <mxCell id="gv5lze--wlOEz9VzUW8e-100" value="" style="html=1;points=[[0,0,0,0,5],[0,1,0,0,-5],[1,0,0,0,5],[1,1,0,0,-5]];perimeter=orthogonalPerimeter;outlineConnect=0;targetShapes=umlLifeline;portConstraint=eastwest;newEdgeStyle={&quot;curved&quot;:0,&quot;rounded&quot;:0};" parent="1" vertex="1">
          <mxGeometry x="1235" y="650" width="10" height="40" as="geometry" />
        </mxCell>
        <mxCell id="gv5lze--wlOEz9VzUW8e-101" value="Передать запрос" style="html=1;verticalAlign=bottom;endArrow=block;curved=0;rounded=0;entryX=0;entryY=0;entryDx=0;entryDy=5;entryPerimeter=0;" parent="1" source="gv5lze--wlOEz9VzUW8e-95" target="gv5lze--wlOEz9VzUW8e-98" edge="1">
          <mxGeometry x="-0.1333" y="5" relative="1" as="geometry">
            <mxPoint x="615" y="275" as="sourcePoint" />
            <mxPoint as="offset" />
          </mxGeometry>
        </mxCell>
        <mxCell id="gv5lze--wlOEz9VzUW8e-102" value="Список проектов" style="html=1;verticalAlign=bottom;endArrow=open;dashed=1;endSize=8;curved=0;rounded=0;exitX=0;exitY=1;exitDx=0;exitDy=-5;exitPerimeter=0;" parent="1" source="gv5lze--wlOEz9VzUW8e-98" target="gv5lze--wlOEz9VzUW8e-95" edge="1">
          <mxGeometry x="0.2667" y="-5" relative="1" as="geometry">
            <mxPoint x="615" y="375" as="targetPoint" />
            <mxPoint as="offset" />
          </mxGeometry>
        </mxCell>
        <mxCell id="gv5lze--wlOEz9VzUW8e-103" value="" style="html=1;points=[[0,0,0,0,5],[0,1,0,0,-5],[1,0,0,0,5],[1,1,0,0,-5]];perimeter=orthogonalPerimeter;outlineConnect=0;targetShapes=umlLifeline;portConstraint=eastwest;newEdgeStyle={&quot;curved&quot;:0,&quot;rounded&quot;:0};" parent="1" vertex="1">
          <mxGeometry x="915" y="590" width="10" height="35" as="geometry" />
        </mxCell>
        <mxCell id="gv5lze--wlOEz9VzUW8e-104" value="Проверить параметры" style="html=1;verticalAlign=bottom;endArrow=block;curved=0;rounded=0;entryX=0;entryY=0;entryDx=0;entryDy=5;entryPerimeter=0;" parent="1" source="gv5lze--wlOEz9VzUW8e-98" target="gv5lze--wlOEz9VzUW8e-103" edge="1">
          <mxGeometry x="-0.1333" y="5" relative="1" as="geometry">
            <mxPoint x="775" y="235" as="sourcePoint" />
            <mxPoint as="offset" />
          </mxGeometry>
        </mxCell>
        <mxCell id="gv5lze--wlOEz9VzUW8e-105" value="Результат" style="html=1;verticalAlign=bottom;endArrow=open;dashed=1;endSize=8;curved=0;rounded=0;exitX=0;exitY=1;exitDx=0;exitDy=-5;exitPerimeter=0;" parent="1" source="gv5lze--wlOEz9VzUW8e-103" target="gv5lze--wlOEz9VzUW8e-98" edge="1">
          <mxGeometry x="0.5333" relative="1" as="geometry">
            <mxPoint x="775" y="305" as="targetPoint" />
            <mxPoint as="offset" />
          </mxGeometry>
        </mxCell>
        <mxCell id="gv5lze--wlOEz9VzUW8e-106" value="Запросить пользователей проекта" style="html=1;verticalAlign=bottom;endArrow=block;curved=0;rounded=0;entryX=0;entryY=0;entryDx=0;entryDy=5;entryPerimeter=0;" parent="1" source="gv5lze--wlOEz9VzUW8e-98" target="gv5lze--wlOEz9VzUW8e-99" edge="1">
          <mxGeometry x="-0.3871" relative="1" as="geometry">
            <mxPoint x="935" y="325" as="sourcePoint" />
            <mxPoint as="offset" />
          </mxGeometry>
        </mxCell>
        <mxCell id="gv5lze--wlOEz9VzUW8e-107" value="Список пользователей" style="html=1;verticalAlign=bottom;endArrow=open;dashed=1;endSize=8;curved=0;rounded=0;exitX=0;exitY=1;exitDx=0;exitDy=-5;exitPerimeter=0;" parent="1" source="gv5lze--wlOEz9VzUW8e-99" target="gv5lze--wlOEz9VzUW8e-98" edge="1">
          <mxGeometry x="0.5806" relative="1" as="geometry">
            <mxPoint x="935" y="355" as="targetPoint" />
            <mxPoint as="offset" />
          </mxGeometry>
        </mxCell>
        <mxCell id="gv5lze--wlOEz9VzUW8e-108" value="Запрос" style="html=1;verticalAlign=bottom;endArrow=block;curved=0;rounded=0;entryX=0;entryY=0;entryDx=0;entryDy=5;entryPerimeter=0;" parent="1" source="gv5lze--wlOEz9VzUW8e-99" target="gv5lze--wlOEz9VzUW8e-100" edge="1">
          <mxGeometry x="-0.5806" y="5" relative="1" as="geometry">
            <mxPoint x="935" y="315" as="sourcePoint" />
            <mxPoint as="offset" />
          </mxGeometry>
        </mxCell>
        <mxCell id="gv5lze--wlOEz9VzUW8e-109" value="Результат" style="html=1;verticalAlign=bottom;endArrow=open;dashed=1;endSize=8;curved=0;rounded=0;exitX=0;exitY=1;exitDx=0;exitDy=-5;exitPerimeter=0;" parent="1" source="gv5lze--wlOEz9VzUW8e-100" target="gv5lze--wlOEz9VzUW8e-99" edge="1">
          <mxGeometry x="0.5806" y="-5" relative="1" as="geometry">
            <mxPoint x="935" y="355" as="targetPoint" />
            <mxPoint as="offset" />
          </mxGeometry>
        </mxCell>
        <mxCell id="gv5lze--wlOEz9VzUW8e-113" value="Отображение в окне" style="html=1;verticalAlign=bottom;endArrow=open;dashed=1;endSize=8;curved=0;rounded=0;exitX=0;exitY=1;exitDx=0;exitDy=-5;exitPerimeter=0;" parent="1" source="gv5lze--wlOEz9VzUW8e-111" target="gv5lze--wlOEz9VzUW8e-3" edge="1">
          <mxGeometry x="0.1333" y="-5" relative="1" as="geometry">
            <mxPoint x="125" y="755" as="targetPoint" />
            <mxPoint as="offset" />
          </mxGeometry>
        </mxCell>
        <mxCell id="gv5lze--wlOEz9VzUW8e-112" value="Выбрать пользователя" style="html=1;verticalAlign=bottom;endArrow=block;curved=0;rounded=0;entryX=0;entryY=0;entryDx=0;entryDy=5;entryPerimeter=0;" parent="1" source="gv5lze--wlOEz9VzUW8e-3" target="gv5lze--wlOEz9VzUW8e-111" edge="1">
          <mxGeometry x="-0.1333" y="5" relative="1" as="geometry">
            <mxPoint x="125" y="735" as="sourcePoint" />
            <mxPoint as="offset" />
          </mxGeometry>
        </mxCell>
        <mxCell id="gv5lze--wlOEz9VzUW8e-119" value="" style="endArrow=none;dashed=1;html=1;rounded=0;exitX=0;exitY=0.431;exitDx=0;exitDy=0;exitPerimeter=0;" parent="1" edge="1">
          <mxGeometry width="50" height="50" relative="1" as="geometry">
            <mxPoint x="11" y="779.48" as="sourcePoint" />
            <mxPoint x="1270" y="779" as="targetPoint" />
          </mxGeometry>
        </mxCell>
        <mxCell id="gv5lze--wlOEz9VzUW8e-133" value="[заполнить описание]" style="text;html=1;align=center;verticalAlign=middle;whiteSpace=wrap;rounded=0;" parent="1" vertex="1">
          <mxGeometry x="15" y="786" width="70" height="30" as="geometry" />
        </mxCell>
        <mxCell id="gv5lze--wlOEz9VzUW8e-138" value="Проверить поле" style="html=1;verticalAlign=bottom;endArrow=block;curved=0;rounded=0;entryX=0;entryY=0;entryDx=0;entryDy=5;entryPerimeter=0;" parent="1" source="gv5lze--wlOEz9VzUW8e-134" target="gv5lze--wlOEz9VzUW8e-137" edge="1">
          <mxGeometry y="5" relative="1" as="geometry">
            <mxPoint x="285" y="811" as="sourcePoint" />
            <mxPoint as="offset" />
          </mxGeometry>
        </mxCell>
        <mxCell id="gv5lze--wlOEz9VzUW8e-139" value="Результат" style="html=1;verticalAlign=bottom;endArrow=open;dashed=1;endSize=8;curved=0;rounded=0;exitX=0;exitY=1;exitDx=0;exitDy=-5;exitPerimeter=0;" parent="1" source="gv5lze--wlOEz9VzUW8e-137" target="gv5lze--wlOEz9VzUW8e-134" edge="1">
          <mxGeometry x="0.1333" y="-5" relative="1" as="geometry">
            <mxPoint x="285" y="841" as="targetPoint" />
            <mxPoint as="offset" />
          </mxGeometry>
        </mxCell>
        <mxCell id="gv5lze--wlOEz9VzUW8e-136" value="Результат" style="html=1;verticalAlign=bottom;endArrow=open;dashed=1;endSize=8;curved=0;rounded=0;exitX=0;exitY=1;exitDx=0;exitDy=-5;exitPerimeter=0;" parent="1" source="gv5lze--wlOEz9VzUW8e-134" edge="1">
          <mxGeometry x="0.1333" y="-5" relative="1" as="geometry">
            <mxPoint x="125" y="851" as="targetPoint" />
            <mxPoint as="offset" />
          </mxGeometry>
        </mxCell>
        <mxCell id="gv5lze--wlOEz9VzUW8e-135" value="Ввести описание" style="html=1;verticalAlign=bottom;endArrow=block;curved=0;rounded=0;entryX=0;entryY=0;entryDx=0;entryDy=5;entryPerimeter=0;" parent="1" target="gv5lze--wlOEz9VzUW8e-134" edge="1">
          <mxGeometry y="5" relative="1" as="geometry">
            <mxPoint x="125" y="811" as="sourcePoint" />
            <mxPoint as="offset" />
          </mxGeometry>
        </mxCell>
        <mxCell id="gv5lze--wlOEz9VzUW8e-141" value="После каждого изменения проверяется все ли обязательные поля заполнены. Если заполнены, то сделать &quot;Сохранить&quot; доступным" style="shape=note2;boundedLbl=1;whiteSpace=wrap;html=1;size=25;verticalAlign=top;align=center;fillColor=#d5e8d4;strokeColor=#82b366;" parent="1" vertex="1">
          <mxGeometry x="-20" y="1040" width="120" height="150" as="geometry" />
        </mxCell>
        <mxCell id="gv5lze--wlOEz9VzUW8e-143" value="Нажать &quot;Сохранить&quot;" style="html=1;verticalAlign=bottom;endArrow=block;curved=0;rounded=0;entryX=0;entryY=0;entryDx=0;entryDy=5;entryPerimeter=0;" parent="1" target="gv5lze--wlOEz9VzUW8e-142" edge="1">
          <mxGeometry y="5" relative="1" as="geometry">
            <mxPoint x="125" y="1056" as="sourcePoint" />
            <mxPoint as="offset" />
          </mxGeometry>
        </mxCell>
        <mxCell id="gv5lze--wlOEz9VzUW8e-144" value="Возврат в раздел" style="html=1;verticalAlign=bottom;endArrow=open;dashed=1;endSize=8;curved=0;rounded=0;exitX=0;exitY=1;exitDx=0;exitDy=-5;exitPerimeter=0;" parent="1" source="gv5lze--wlOEz9VzUW8e-142" target="gv5lze--wlOEz9VzUW8e-3" edge="1">
          <mxGeometry relative="1" as="geometry">
            <mxPoint x="125" y="1366" as="targetPoint" />
          </mxGeometry>
        </mxCell>
        <mxCell id="gv5lze--wlOEz9VzUW8e-146" value="POST /task/add" style="html=1;verticalAlign=bottom;endArrow=block;curved=0;rounded=0;entryX=0;entryY=0;entryDx=0;entryDy=5;entryPerimeter=0;" parent="1" source="gv5lze--wlOEz9VzUW8e-142" target="gv5lze--wlOEz9VzUW8e-145" edge="1">
          <mxGeometry x="-0.6452" y="5" relative="1" as="geometry">
            <mxPoint x="285" y="1056" as="sourcePoint" />
            <mxPoint as="offset" />
          </mxGeometry>
        </mxCell>
        <mxCell id="gv5lze--wlOEz9VzUW8e-147" value="Результат" style="html=1;verticalAlign=bottom;endArrow=open;dashed=1;endSize=8;curved=0;rounded=0;exitX=0;exitY=1;exitDx=0;exitDy=-5;exitPerimeter=0;" parent="1" source="gv5lze--wlOEz9VzUW8e-145" target="gv5lze--wlOEz9VzUW8e-142" edge="1">
          <mxGeometry x="0.7742" y="-5" relative="1" as="geometry">
            <mxPoint x="285" y="1316" as="targetPoint" />
            <mxPoint as="offset" />
          </mxGeometry>
        </mxCell>
        <mxCell id="gv5lze--wlOEz9VzUW8e-153" value="Результат" style="html=1;verticalAlign=bottom;endArrow=open;dashed=1;endSize=8;curved=0;rounded=0;exitX=0;exitY=1;exitDx=0;exitDy=-5;exitPerimeter=0;" parent="1" source="gv5lze--wlOEz9VzUW8e-151" target="gv5lze--wlOEz9VzUW8e-145" edge="1">
          <mxGeometry x="0.2667" y="-5" relative="1" as="geometry">
            <mxPoint x="605" y="1166" as="targetPoint" />
            <mxPoint as="offset" />
          </mxGeometry>
        </mxCell>
        <mxCell id="gv5lze--wlOEz9VzUW8e-152" value="Передать запрос" style="html=1;verticalAlign=bottom;endArrow=block;curved=0;rounded=0;entryX=0;entryY=0;entryDx=0;entryDy=5;entryPerimeter=0;" parent="1" source="gv5lze--wlOEz9VzUW8e-145" target="gv5lze--wlOEz9VzUW8e-151" edge="1">
          <mxGeometry x="-0.1333" y="5" relative="1" as="geometry">
            <mxPoint x="605" y="1066" as="sourcePoint" />
            <mxPoint as="offset" />
          </mxGeometry>
        </mxCell>
        <mxCell id="gv5lze--wlOEz9VzUW8e-155" value="Проверить параметры" style="html=1;verticalAlign=bottom;endArrow=block;curved=0;rounded=0;entryX=0;entryY=0;entryDx=0;entryDy=5;entryPerimeter=0;" parent="1" source="gv5lze--wlOEz9VzUW8e-151" target="gv5lze--wlOEz9VzUW8e-154" edge="1">
          <mxGeometry x="-0.1333" y="5" relative="1" as="geometry">
            <mxPoint x="765" y="1066" as="sourcePoint" />
            <mxPoint as="offset" />
          </mxGeometry>
        </mxCell>
        <mxCell id="gv5lze--wlOEz9VzUW8e-156" value="Результат" style="html=1;verticalAlign=bottom;endArrow=open;dashed=1;endSize=8;curved=0;rounded=0;exitX=0;exitY=1;exitDx=0;exitDy=-5;exitPerimeter=0;" parent="1" source="gv5lze--wlOEz9VzUW8e-154" target="gv5lze--wlOEz9VzUW8e-151" edge="1">
          <mxGeometry x="0.5333" relative="1" as="geometry">
            <mxPoint x="760" y="1081" as="targetPoint" />
            <mxPoint as="offset" />
          </mxGeometry>
        </mxCell>
        <mxCell id="gv5lze--wlOEz9VzUW8e-159" value="Запрос" style="html=1;verticalAlign=bottom;endArrow=block;curved=0;rounded=0;entryX=0;entryY=0;entryDx=0;entryDy=5;entryPerimeter=0;" parent="1" source="gv5lze--wlOEz9VzUW8e-157" target="gv5lze--wlOEz9VzUW8e-158" edge="1">
          <mxGeometry x="-0.5806" y="5" relative="1" as="geometry">
            <mxPoint x="945" y="722" as="sourcePoint" />
            <mxPoint as="offset" />
          </mxGeometry>
        </mxCell>
        <mxCell id="gv5lze--wlOEz9VzUW8e-160" value="Результат" style="html=1;verticalAlign=bottom;endArrow=open;dashed=1;endSize=8;curved=0;rounded=0;exitX=0;exitY=1;exitDx=0;exitDy=-5;exitPerimeter=0;" parent="1" source="gv5lze--wlOEz9VzUW8e-158" target="gv5lze--wlOEz9VzUW8e-157" edge="1">
          <mxGeometry x="0.5806" y="-5" relative="1" as="geometry">
            <mxPoint x="945" y="762" as="targetPoint" />
            <mxPoint as="offset" />
          </mxGeometry>
        </mxCell>
        <mxCell id="gv5lze--wlOEz9VzUW8e-162" value="Результат" style="html=1;verticalAlign=bottom;endArrow=open;dashed=1;endSize=8;curved=0;rounded=0;exitX=0;exitY=1;exitDx=0;exitDy=-5;exitPerimeter=0;" parent="1" source="gv5lze--wlOEz9VzUW8e-157" target="gv5lze--wlOEz9VzUW8e-154" edge="1">
          <mxGeometry x="0.5806" y="-5" relative="1" as="geometry">
            <mxPoint x="1095" y="1126" as="targetPoint" />
            <mxPoint as="offset" />
            <mxPoint x="1245" y="1126" as="sourcePoint" />
          </mxGeometry>
        </mxCell>
        <mxCell id="gv5lze--wlOEz9VzUW8e-163" value="Проверить наличие&amp;nbsp;проекта" style="html=1;verticalAlign=bottom;endArrow=block;curved=0;rounded=0;entryX=0;entryY=0;entryDx=0;entryDy=5;entryPerimeter=0;" parent="1" source="gv5lze--wlOEz9VzUW8e-154" target="gv5lze--wlOEz9VzUW8e-157" edge="1">
          <mxGeometry y="5" relative="1" as="geometry">
            <mxPoint x="1095" y="1096" as="sourcePoint" />
            <mxPoint as="offset" />
            <mxPoint x="1245" y="1096" as="targetPoint" />
          </mxGeometry>
        </mxCell>
        <mxCell id="gv5lze--wlOEz9VzUW8e-166" value="Запрос" style="html=1;verticalAlign=bottom;endArrow=block;curved=0;rounded=0;entryX=0;entryY=0;entryDx=0;entryDy=5;entryPerimeter=0;" parent="1" source="gv5lze--wlOEz9VzUW8e-164" target="gv5lze--wlOEz9VzUW8e-165" edge="1">
          <mxGeometry x="-0.5806" y="5" relative="1" as="geometry">
            <mxPoint x="955" y="732" as="sourcePoint" />
            <mxPoint as="offset" />
          </mxGeometry>
        </mxCell>
        <mxCell id="gv5lze--wlOEz9VzUW8e-167" value="Результат" style="html=1;verticalAlign=bottom;endArrow=open;dashed=1;endSize=8;curved=0;rounded=0;exitX=0;exitY=1;exitDx=0;exitDy=-5;exitPerimeter=0;" parent="1" source="gv5lze--wlOEz9VzUW8e-165" target="gv5lze--wlOEz9VzUW8e-164" edge="1">
          <mxGeometry x="0.5806" y="-5" relative="1" as="geometry">
            <mxPoint x="955" y="772" as="targetPoint" />
            <mxPoint as="offset" />
          </mxGeometry>
        </mxCell>
        <mxCell id="gv5lze--wlOEz9VzUW8e-168" value="Результат" style="html=1;verticalAlign=bottom;endArrow=open;dashed=1;endSize=8;curved=0;rounded=0;exitX=0;exitY=1;exitDx=0;exitDy=-5;exitPerimeter=0;" parent="1" source="gv5lze--wlOEz9VzUW8e-164" target="gv5lze--wlOEz9VzUW8e-154" edge="1">
          <mxGeometry x="0.5806" y="-5" relative="1" as="geometry">
            <mxPoint x="935" y="1107" as="targetPoint" />
            <mxPoint as="offset" />
            <mxPoint x="1255" y="1136" as="sourcePoint" />
          </mxGeometry>
        </mxCell>
        <mxCell id="gv5lze--wlOEz9VzUW8e-169" value="Проверить наличие&lt;br&gt;пользователей" style="html=1;verticalAlign=bottom;endArrow=block;curved=0;rounded=0;entryX=0;entryY=0;entryDx=0;entryDy=5;entryPerimeter=0;" parent="1" source="gv5lze--wlOEz9VzUW8e-154" target="gv5lze--wlOEz9VzUW8e-164" edge="1">
          <mxGeometry relative="1" as="geometry">
            <mxPoint x="935" y="1077" as="sourcePoint" />
            <mxPoint as="offset" />
            <mxPoint x="1255" y="1106" as="targetPoint" />
          </mxGeometry>
        </mxCell>
        <mxCell id="gv5lze--wlOEz9VzUW8e-172" value="Создать задачу" style="html=1;verticalAlign=bottom;endArrow=block;curved=0;rounded=0;entryX=0;entryY=0;entryDx=0;entryDy=5;entryPerimeter=0;" parent="1" source="gv5lze--wlOEz9VzUW8e-151" target="gv5lze--wlOEz9VzUW8e-171" edge="1">
          <mxGeometry x="-0.6452" y="5" relative="1" as="geometry">
            <mxPoint x="925" y="1196" as="sourcePoint" />
            <mxPoint as="offset" />
          </mxGeometry>
        </mxCell>
        <mxCell id="gv5lze--wlOEz9VzUW8e-173" value="Результат" style="html=1;verticalAlign=bottom;endArrow=open;dashed=1;endSize=8;curved=0;rounded=0;exitX=0;exitY=1;exitDx=0;exitDy=-5;exitPerimeter=0;" parent="1" source="gv5lze--wlOEz9VzUW8e-171" target="gv5lze--wlOEz9VzUW8e-151" edge="1">
          <mxGeometry x="0.7097" relative="1" as="geometry">
            <mxPoint x="925" y="1296" as="targetPoint" />
            <mxPoint as="offset" />
          </mxGeometry>
        </mxCell>
        <mxCell id="gv5lze--wlOEz9VzUW8e-175" value="Вставить задачу" style="html=1;verticalAlign=bottom;endArrow=block;curved=0;rounded=0;entryX=0;entryY=0;entryDx=0;entryDy=5;entryPerimeter=0;" parent="1" source="gv5lze--wlOEz9VzUW8e-171" target="gv5lze--wlOEz9VzUW8e-174" edge="1">
          <mxGeometry x="-0.4" y="5" relative="1" as="geometry">
            <mxPoint x="1084" y="1206" as="sourcePoint" />
            <mxPoint as="offset" />
          </mxGeometry>
        </mxCell>
        <mxCell id="gv5lze--wlOEz9VzUW8e-176" value="Результат" style="html=1;verticalAlign=bottom;endArrow=open;dashed=1;endSize=8;curved=0;rounded=0;exitX=0;exitY=1;exitDx=0;exitDy=-5;exitPerimeter=0;" parent="1" source="gv5lze--wlOEz9VzUW8e-174" target="gv5lze--wlOEz9VzUW8e-171" edge="1">
          <mxGeometry x="0.5806" y="-5" relative="1" as="geometry">
            <mxPoint x="1084" y="1236" as="targetPoint" />
            <mxPoint as="offset" />
          </mxGeometry>
        </mxCell>
        <mxCell id="gv5lze--wlOEz9VzUW8e-181" value="Уведомить пользователей" style="html=1;verticalAlign=bottom;endArrow=block;curved=0;rounded=0;entryX=0;entryY=0;entryDx=0;entryDy=5;entryPerimeter=0;" parent="1" source="gv5lze--wlOEz9VzUW8e-151" target="gv5lze--wlOEz9VzUW8e-180" edge="1">
          <mxGeometry x="-0.7623" y="5" relative="1" as="geometry">
            <mxPoint x="1246" y="1296" as="sourcePoint" />
            <mxPoint as="offset" />
          </mxGeometry>
        </mxCell>
        <mxCell id="gv5lze--wlOEz9VzUW8e-182" value="Результат" style="html=1;verticalAlign=bottom;endArrow=open;dashed=1;endSize=8;curved=0;rounded=0;exitX=0;exitY=1;exitDx=0;exitDy=-5;exitPerimeter=0;" parent="1" source="gv5lze--wlOEz9VzUW8e-180" target="gv5lze--wlOEz9VzUW8e-151" edge="1">
          <mxGeometry x="0.8891" y="-5" relative="1" as="geometry">
            <mxPoint x="1246" y="1326" as="targetPoint" />
            <mxPoint as="offset" />
          </mxGeometry>
        </mxCell>
        <mxCell id="gv5lze--wlOEz9VzUW8e-183" value="Уведомить пользователей" style="html=1;verticalAlign=bottom;endArrow=open;curved=0;rounded=0;endFill=0;" parent="1" source="gv5lze--wlOEz9VzUW8e-180" target="gv5lze--wlOEz9VzUW8e-41" edge="1">
          <mxGeometry x="-0.0358" relative="1" as="geometry">
            <mxPoint x="775" y="1336" as="sourcePoint" />
            <mxPoint as="offset" />
            <mxPoint x="1559.5" y="1341" as="targetPoint" />
          </mxGeometry>
        </mxCell>
        <mxCell id="1q9RvxqPOxcDUt8TUrFw-2" value="" style="endArrow=none;dashed=1;html=1;rounded=0;exitX=0;exitY=0.431;exitDx=0;exitDy=0;exitPerimeter=0;" parent="1" edge="1">
          <mxGeometry width="50" height="50" relative="1" as="geometry">
            <mxPoint x="10" y="860.48" as="sourcePoint" />
            <mxPoint x="1269" y="860" as="targetPoint" />
          </mxGeometry>
        </mxCell>
        <mxCell id="1q9RvxqPOxcDUt8TUrFw-3" value="[заполнить выделенное время]" style="text;html=1;align=center;verticalAlign=middle;whiteSpace=wrap;rounded=0;" parent="1" vertex="1">
          <mxGeometry x="15" y="870" width="70" height="30" as="geometry" />
        </mxCell>
        <mxCell id="1q9RvxqPOxcDUt8TUrFw-9" value="Запрос ввода" style="html=1;verticalAlign=bottom;endArrow=block;curved=0;rounded=0;entryX=0;entryY=0;entryDx=0;entryDy=5;entryPerimeter=0;" parent="1" source="gv5lze--wlOEz9VzUW8e-3" target="1q9RvxqPOxcDUt8TUrFw-4" edge="1">
          <mxGeometry y="5" relative="1" as="geometry">
            <mxPoint x="125" y="885" as="sourcePoint" />
            <mxPoint as="offset" />
          </mxGeometry>
        </mxCell>
        <mxCell id="1q9RvxqPOxcDUt8TUrFw-8" value="Результат" style="html=1;verticalAlign=bottom;endArrow=open;dashed=1;endSize=8;curved=0;rounded=0;exitX=0;exitY=1;exitDx=0;exitDy=-5;exitPerimeter=0;" parent="1" source="1q9RvxqPOxcDUt8TUrFw-4" target="gv5lze--wlOEz9VzUW8e-3" edge="1">
          <mxGeometry x="0.1333" y="-5" relative="1" as="geometry">
            <mxPoint x="125" y="925" as="targetPoint" />
            <mxPoint as="offset" />
          </mxGeometry>
        </mxCell>
        <mxCell id="1q9RvxqPOxcDUt8TUrFw-11" value="Проверить поле" style="html=1;verticalAlign=bottom;endArrow=block;curved=0;rounded=0;entryX=0;entryY=0;entryDx=0;entryDy=5;entryPerimeter=0;" parent="1" source="1q9RvxqPOxcDUt8TUrFw-4" target="1q9RvxqPOxcDUt8TUrFw-10" edge="1">
          <mxGeometry y="5" relative="1" as="geometry">
            <mxPoint x="285" y="885" as="sourcePoint" />
            <mxPoint as="offset" />
          </mxGeometry>
        </mxCell>
        <mxCell id="1q9RvxqPOxcDUt8TUrFw-12" value="Результат" style="html=1;verticalAlign=bottom;endArrow=open;dashed=1;endSize=8;curved=0;rounded=0;exitX=0;exitY=1;exitDx=0;exitDy=-5;exitPerimeter=0;" parent="1" source="1q9RvxqPOxcDUt8TUrFw-10" target="1q9RvxqPOxcDUt8TUrFw-4" edge="1">
          <mxGeometry x="0.1333" y="-5" relative="1" as="geometry">
            <mxPoint x="285" y="915" as="targetPoint" />
            <mxPoint as="offset" />
          </mxGeometry>
        </mxCell>
        <mxCell id="1q9RvxqPOxcDUt8TUrFw-16" value="" style="endArrow=none;dashed=1;html=1;rounded=0;exitX=0;exitY=0.431;exitDx=0;exitDy=0;exitPerimeter=0;" parent="1" edge="1">
          <mxGeometry width="50" height="50" relative="1" as="geometry">
            <mxPoint x="10" y="940.48" as="sourcePoint" />
            <mxPoint x="1269" y="940" as="targetPoint" />
          </mxGeometry>
        </mxCell>
        <mxCell id="1q9RvxqPOxcDUt8TUrFw-35" value="Проверить поле" style="html=1;verticalAlign=bottom;endArrow=block;curved=0;rounded=0;entryX=0;entryY=0;entryDx=0;entryDy=5;entryPerimeter=0;" parent="1" source="1q9RvxqPOxcDUt8TUrFw-30" target="1q9RvxqPOxcDUt8TUrFw-34" edge="1">
          <mxGeometry y="5" relative="1" as="geometry">
            <mxPoint x="285" y="965" as="sourcePoint" />
            <mxPoint as="offset" />
          </mxGeometry>
        </mxCell>
        <mxCell id="1q9RvxqPOxcDUt8TUrFw-36" value="Результат" style="html=1;verticalAlign=bottom;endArrow=open;dashed=1;endSize=8;curved=0;rounded=0;exitX=0;exitY=1;exitDx=0;exitDy=-5;exitPerimeter=0;" parent="1" source="1q9RvxqPOxcDUt8TUrFw-34" target="1q9RvxqPOxcDUt8TUrFw-30" edge="1">
          <mxGeometry x="0.1333" y="-5" relative="1" as="geometry">
            <mxPoint x="285" y="995" as="targetPoint" />
            <mxPoint as="offset" />
          </mxGeometry>
        </mxCell>
      </root>
    </mxGraphModel>
  </diagram>
</mxfile>
